<svg xmlns="http://www.w3.org/2000/svg" viewBox="0 0 348 417.93"><defs><style>.cls-1{fill:#192734;}.cls-2{fill:#fff;}</style></defs><title>pilgrm_here_I_am</title><g id="Sign_Up" data-name="Sign Up"><path class="cls-1" d="M1239,684l-6,6C1235.05,688.05,1237.05,686.05,1239,684Z" transform="translate(-939 -390)"/><path class="cls-1" d="M993,690l-6-6C989,686.05,991,688.05,993,690Z" transform="translate(-939 -390)"/><path class="cls-1" d="M1113,390A174,174,0,0,0,987,684l6,6,116.47,116.47a5,5,0,0,0,7.08,0L1233,690l6-6a174,174,0,0,0-126-294Z" transform="translate(-939 -390)"/><path class="cls-2" d="M1077.35,507a.09.09,0,0,0,.1.09h3.66a.09.09,0,0,1,.09.09v23.59a.1.1,0,0,0,.1.1h4.91a.09.09,0,0,0,.09-.1V507.19a.09.09,0,0,1,.1-.09h3.65a.09.09,0,0,0,.09-.09v-4.92a.09.09,0,0,0-.09-.09h-12.6a.09.09,0,0,0-.1.09Z" transform="translate(-939 -390)"/><path class="cls-2" d="M1110.77,518.81a.1.1,0,0,1,.1-.09h4.9a.09.09,0,0,1,.09.09v12a.09.09,0,0,0,.1.1h4.9a.09.09,0,0,0,.09-.1V502.11a.09.09,0,0,0-.09-.1H1116a.09.09,0,0,0-.09.1v11.43a.09.09,0,0,1-.09.09h-4.9a.1.1,0,0,1-.1-.09V502.11a.09.09,0,0,0-.09-.1h-4.9a.1.1,0,0,0-.1.1v28.67a.1.1,0,0,0,.1.1h4.9a.09.09,0,0,0,.09-.1Z" transform="translate(-939 -390)"/><path class="cls-2" d="M1138.46,502h-2.59a.09.09,0,0,0-.09.1v28.67a.1.1,0,0,0,.09.1h12.54a.1.1,0,0,0,.09-.1l0-4.9a.09.09,0,0,0-.09-.09H1141a.09.09,0,0,1-.09-.09v-6.89a.09.09,0,0,1,.09-.09h5.75a.09.09,0,0,0,.09-.09v-4.91a.09.09,0,0,0-.09-.09H1141a.09.09,0,0,1-.09-.09v-6.35a.09.09,0,0,1,.09-.09h7.45a.09.09,0,0,0,.09-.09v-4.9a.09.09,0,0,0-.09-.1h-10Z" transform="translate(-939 -390)"/><path class="cls-2" d="M997.38,550.1l-.18,0-21,0a.1.1,0,0,0-.09.1v57.49a.09.09,0,0,0,.09.1h10a.09.09,0,0,0,.09-.1V583.57a.1.1,0,0,1,.1-.09H997.2l.18,0a4.25,4.25,0,0,0,4.21-4.21,1.11,1.11,0,0,0,0-.19V554.41l0-.09a7.86,7.86,0,0,0-1.24-3A8,8,0,0,0,997.38,550.1Zm-5.94,23.11a.09.09,0,0,1-.09.1h-5a.1.1,0,0,1-.1-.1V560.35a.1.1,0,0,1,.1-.09h5a.09.09,0,0,1,.09.09Z" transform="translate(-939 -390)"/><rect class="cls-2" x="87.28" y="160.09" width="10.17" height="57.69" rx="0.09"/><path class="cls-2" d="M1071.59,550.18a.1.1,0,0,0-.09-.1h-10a.1.1,0,0,0-.09.1v57.51a.1.1,0,0,0,.09.1h22.54a.1.1,0,0,0,.1-.1v-10a.1.1,0,0,0-.1-.1h-12.36a.09.09,0,0,1-.1-.09Z" transform="translate(-939 -390)"/><path class="cls-2" d="M1180,583.5l.18,0a7.81,7.81,0,0,0,3-1.25,7.72,7.72,0,0,0,1.22-3,1.1,1.1,0,0,0,0-.18V554.51a1.1,1.1,0,0,0,0-.18,7.93,7.93,0,0,0-1.25-3,7.73,7.73,0,0,0-3-1.25.55.55,0,0,0-.18,0l-21.18,0a.09.09,0,0,0-.09.09v57.49a.1.1,0,0,0,.09.1h10a.1.1,0,0,0,.1-.1v-24.1c0-.05,0-.05,0,0L1176,607.7a.13.13,0,0,0,.12.09h9.94a.07.07,0,0,0,.07-.09l-7-24.11a.07.07,0,0,1,.07-.09Zm-5.74-10.29a.1.1,0,0,1-.09.1H1169a.1.1,0,0,1-.09-.1V560.37a.09.09,0,0,1,.09-.09h5.16a.09.09,0,0,1,.09.09Z" transform="translate(-939 -390)"/><path class="cls-2" d="M1239.81,550.08a.14.14,0,0,0-.12.09l-9.5,27.19s0,0-.06,0l-9.4-27.19a.15.15,0,0,0-.13-.09h-10a.1.1,0,0,0-.1.09v57.52a.1.1,0,0,0,.1.09h10a.1.1,0,0,0,.1-.09l0-25.83c0-.05,0-.05,0,0l5.56,15.89a.15.15,0,0,0,.13.09h7.43a.15.15,0,0,0,.13-.09l5.71-15.89s0,0,0,0l0,25.83a.09.09,0,0,0,.09.09h10a.09.09,0,0,0,.09-.09V550.17a.09.09,0,0,0-.09-.09Z" transform="translate(-939 -390)"/><path class="cls-2" d="M1129.43,550.1l-.18,0h-16.6l-.19,0a7.91,7.91,0,0,0-3,1.25,7.76,7.76,0,0,0-1.25,3,1.1,1.1,0,0,0,0,.18v48.87a1.1,1.1,0,0,0,0,.18,7.76,7.76,0,0,0,1.25,3,7.91,7.91,0,0,0,3,1.25h17a4.27,4.27,0,0,0,4.22-4.22,1.1,1.1,0,0,0,0-.18V578.49a.11.11,0,0,0-.1-.1h-11.68a.1.1,0,0,0-.09.1v10a.1.1,0,0,0,.09.1h1.51a.09.09,0,0,1,.09.09v8.86a.09.09,0,0,1-.09.09h-4.9a.1.1,0,0,1-.1-.09V560.35a.1.1,0,0,1,.1-.09h4.9a.09.09,0,0,1,.09.09v8.86a.09.09,0,0,0,.1.09h10a.09.09,0,0,0,.09-.09v-8.86a.41.41,0,0,1,0-.09V554.5a1.1,1.1,0,0,0,0-.18,4.27,4.27,0,0,0-4.22-4.22Z" transform="translate(-939 -390)"/></g></svg>